<svg class="Icon Icon--account " role="presentation" width="628" height="628" viewBox="0 0 628 628" fill="none" xmlns="http://www.w3.org/2000/svg" style="font-family: var(--main-font);">
      <g clip-path="url(#clip0_83_105)" style="font-family: var(--main-font);">
      <path d="M461.406 157V209.333" stroke="black" stroke-width="20.9333" style="font-family: var(--main-font);"></path>
      <circle cx="461.407" cy="219.8" r="20.9333" fill="black" style="font-family: var(--main-font);"></circle>
      <path d="M440.473 254.689C440.473 243.127 449.845 233.755 461.407 233.755V233.755C472.968 233.755 482.34 243.127 482.34 254.689V282.6C482.34 286.453 479.216 289.577 475.362 289.577H447.451C443.597 289.577 440.473 286.453 440.473 282.6V254.689Z" fill="black" style="font-family: var(--main-font);"></path>
      <path d="M460.265 136.48L317.686 74.4894C315.893 73.71 313.856 73.7183 312.07 74.5122L172.589 136.504C167.007 138.984 167.082 146.932 172.709 149.308L312.188 208.2C313.906 208.925 315.843 208.932 317.566 208.221L402.095 173.306L460.146 149.329C465.841 146.977 465.915 138.937 460.265 136.48Z" stroke="black" stroke-width="47.1" style="font-family: var(--main-font);"></path>
      <path d="M388.984 261.667C397.176 275.496 401.694 291.368 402.069 307.639C402.445 323.911 398.665 339.992 391.12 354.22C383.575 368.449 372.539 380.307 359.154 388.571C345.769 396.834 330.519 401.202 314.982 401.222C299.446 401.243 284.186 396.915 270.781 388.687C257.375 380.459 246.311 368.63 238.732 354.421C231.153 340.213 227.334 324.142 227.671 307.869C228.007 291.597 232.486 275.714 240.645 261.862" stroke="black" stroke-width="47.1" style="font-family: var(--main-font);"></path>
      <path d="M485.828 575.667C485.828 552.759 481.406 530.074 472.815 508.91C464.223 487.745 451.631 468.515 435.756 452.316C419.881 436.117 401.035 423.268 380.294 414.501C359.553 405.735 337.322 401.222 314.872 401.222C292.422 401.222 270.192 405.735 249.45 414.501C228.709 423.268 209.863 436.117 193.988 452.316C178.114 468.515 165.521 487.745 156.93 508.91C148.339 530.074 143.917 552.759 143.917 575.667" stroke="black" stroke-width="47.1" style="font-family: var(--main-font);"></path>
      <path fill-rule="evenodd" clip-rule="evenodd" d="M196.25 229.43V157H243.35V229.43L260.934 242.867C292.945 267.328 335.055 267.328 367.067 242.867L384.65 229.43V157H431.75V229.43C431.75 246.885 424.051 263.211 411.184 273.044L393.6 286.481C345.583 323.173 282.418 323.173 234.401 286.481L216.817 273.044C203.949 263.211 196.25 246.885 196.25 229.43Z" fill="black" style="font-family: var(--main-font);"></path>
      </g>
      <defs style="font-family: var(--main-font);">
      <clipPath id="clip0_83_105" style="font-family: var(--main-font);">
      <rect width="418.667" height="549.5" fill="white" transform="translate(104.667 26.1667)" style="font-family: var(--main-font);"></rect>
      </clipPath>
      </defs>
    </svg>