<svg width="899" height="112" viewBox="0 0 899 112" fill="none" xmlns="http://www.w3.org/2000/svg">
<g clip-path="url(#clip0_7_124)">
<path d="M55.6011 0C40.2821 0 27.1937 5.4458 16.303 16.3358C5.4451 27.2267 0 40.3151 0 55.6011C0 70.9207 5.4451 84.0091 16.303 94.8664C27.1937 105.757 40.2821 111.202 55.6011 111.202C70.8547 111.202 83.943 105.757 94.8337 94.8664C105.724 84.0092 111.202 70.9208 111.202 55.6011C111.202 40.3151 105.724 27.2267 94.8337 16.3358C83.9429 5.4458 70.8547 0 55.6011 0ZM79.1539 79.1535C72.5933 85.6493 64.7533 88.8967 55.6011 88.8967C46.3834 88.8967 38.5436 85.6492 32.0485 79.1535C25.5207 72.6265 22.2732 64.7861 22.2732 55.6011C22.2732 46.4497 25.5208 38.5765 32.0485 32.0487C38.5436 25.4881 46.3834 22.2078 55.6011 22.2078C64.7533 22.2078 72.5932 25.4881 79.1539 32.0487C85.7145 38.5765 88.9621 46.4497 88.9621 55.6011C88.9621 64.7861 85.7145 72.6265 79.1539 79.1535ZM298.18 54.2236L346.794 0.9185H252.157V22.8308H297.032L266.23 54.2236L315.763 110.219H347.589L298.18 54.2236ZM126.718 0.9185V110.219H149.746V64.2287L182.779 108.382L215.779 64.2287V110.219H238.839V0.9185L182.779 70.0021L126.718 0.9185Z" fill="black"/>
<path d="M888.242 0.907227H371.711C371.711 0.907227 361.707 0.907227 361.707 10.9136V100.211C361.707 100.211 361.707 110.217 371.711 110.217H888.242C888.242 110.217 898.245 110.217 898.245 100.211V10.9133C898.245 10.9133 898.245 0.907227 888.242 0.907227Z" fill="black"/>
<path d="M384.971 23.2549H427.209V37.0451H399.798V48.4922H422.957V62.3706H399.798V73.9906H427.209V87.869H384.971V23.2549Z" fill="white"/>
<path d="M435.184 23.2549H455.735C476.205 23.2549 488.432 37.218 488.432 55.4332C488.432 74.9469 474.903 87.8691 455.735 87.8691H435.184V23.2549ZM456.081 73.9906C467.443 73.9906 473.604 65.8393 473.604 55.4331C473.604 44.7623 467.27 37.045 456.081 37.045H450.096V73.9905L456.081 73.9906Z" fill="white"/>
<path d="M496.576 63.9302V23.2549H511.496V63.0622C511.496 69.4809 515.659 74.6858 522.075 74.6858C528.497 74.6858 532.569 69.481 532.569 63.0622V23.2549H547.488V63.9303C547.488 78.5885 536.56 88.91 522.075 88.91C506.464 88.91 496.576 77.5475 496.576 63.9302Z" fill="white"/>
<path d="M555.894 55.5178C555.894 37.652 567.69 22.2139 586.946 22.2139C597.786 22.2139 608.454 27.7646 612.702 37.9131L600.475 47.1054C598.217 40.5138 593.884 36.5263 586.946 36.5263C576.452 36.5263 570.728 45.0234 570.728 55.5178C570.728 66.0122 576.452 74.6857 586.946 74.6857C593.795 74.6857 598.217 70.6947 600.475 64.0184L612.702 73.2107C608.799 82.7523 598.393 88.9099 586.946 88.9099C569.511 88.9099 555.894 75.0315 555.894 55.5178Z" fill="white"/>
<path d="M637.587 23.2549H655.798L676.53 87.869H660.396L656.494 75.2045H636.807L632.904 87.869H616.859L637.587 23.2549ZM652.245 61.3296L646.694 43.118L641.055 61.3296H652.245Z" fill="white"/>
<path d="M689.448 37.0451H674.444V23.2549H719.022V37.0451H704.28V87.869H689.448V37.0451Z" fill="white"/>
<path d="M726.041 23.2549H740.872V87.869H726.041V23.2549Z" fill="white"/>
<path d="M750.064 55.606C750.064 37.1332 764.98 22.2139 783.368 22.2139C801.838 22.2139 816.757 37.1333 816.757 55.606C816.757 73.9905 801.838 88.9099 783.368 88.9099C764.98 88.9099 750.064 73.9905 750.064 55.606ZM783.368 74.5975C793.863 74.5975 802.36 66.1004 802.36 55.606C802.36 45.1116 793.863 36.611 783.368 36.611C772.874 36.611 764.373 45.1116 764.373 55.606C764.373 66.1004 772.874 74.5975 783.368 74.5975Z" fill="white"/>
<path d="M825.077 28.6327L821.954 24.123V23.2549H836.524L861.07 57.3387V23.255H875.897V87.8691H864.45L839.996 53.002V87.8691H825.077V28.6327Z" fill="white"/>
</g>
<defs>
<clipPath id="clip0_7_124">
<rect width="898.246" height="111.202" fill="white"/>
</clipPath>
</defs>
</svg>
