<svg xmlns="http://www.w3.org/2000/svg" viewBox="0 0 101.15 61.98"><defs><style>.cls-1{fill:#fff;}</style></defs><title>Element 10</title><g id="Ebene_2" data-name="Ebene 2"><g id="Ebene_1-2" data-name="Ebene 1"><path d="M101.15,40.85V5s0-5-5-5H5S0,0,0,5V40.85s0,5,5,5H80V62L92.25,45.84h3.91s5,0,5-5"/><path class="cls-1" d="M30.06,22.54a7.74,7.74,0,0,1-2.38,5.7A7.8,7.8,0,0,1,22,30.6a8.06,8.06,0,0,1-8.05-8.06,7.79,7.79,0,0,1,2.36-5.69,8,8,0,0,1,11.39,0,7.77,7.77,0,0,1,2.38,5.69M31.48,32a12.93,12.93,0,0,0,4-9.5,12.94,12.94,0,0,0-4-9.49A12.94,12.94,0,0,0,22,9.1a12.93,12.93,0,0,0-9.5,4,13,13,0,0,0-3.94,9.49A12.94,12.94,0,0,0,12.49,32,13,13,0,0,0,22,36,13,13,0,0,0,31.48,32m29.24,3.72h5.57V9.33L52.74,26,39.18,9.33V35.75h5.57V24.63l8,10.67,8-10.67ZM80.64,22.21,92.39,9.33H69.51v5.3H80.36l-7.44,7.59,12,13.54H92.6Z"/></g></g></svg>